PathFileType	4	(X/Y/Z)	Run_400 02
DataRate	CameraRate	NumFrames	NumMarkers	Units	OrigDataRate	OrigDataStartFrame	OrigNumFrames
100	100	4	42	mm	100	171	128
Frame#	Time	LASI			RASI			LPSI			RPSI			RTH1			RTH2			RTH3			LTH1			LTH2			LTH3			RTB1			RTB2			RTB3			LTB1			LTB2			LTB3			RCAL			RTOE			RMT5			LCAL			LTOE			LMT5			LACR			RACR			CLAV			C7			RUA1			RUA2			RUA3			RLEL			RMEL			LUA1			LUA2			LUA3			LLEL			LMEL			RFAsuperior			RFAradius			RFAulna			LFAsuperior			LFAradius			LFAulna			
		X1	Y1	Z1	X2	Y2	Z2	X3	Y3	Z3	X4	Y4	Z4	X5	Y5	Z5	X6	Y6	Z6	X7	Y7	Z7	X8	Y8	Z8	X9	Y9	Z9	X10	Y10	Z10	X11	Y11	Z11	X12	Y12	Z12	X13	Y13	Z13	X14	Y14	Z14	X15	Y15	Z15	X16	Y16	Z16	X17	Y17	Z17	X18	Y18	Z18	X19	Y19	Z19	X20	Y20	Z20	X21	Y21	Z21	X22	Y22	Z22	X23	Y23	Z23	X24	Y24	Z24	X25	Y25	Z25	X26	Y26	Z26	X27	Y27	Z27	X28	Y28	Z28	X29	Y29	Z29	X30	Y30	Z30	X31	Y31	Z31	X32	Y32	Z32	X33	Y33	Z33	X34	Y34	Z34	X35	Y35	Z35	X36	Y36	Z36	X37	Y37	Z37	X38	Y38	Z38	X39	Y39	Z39	X40	Y40	Z40	X41	Y41	Z41	X42	Y42	Z42	

164	2.17	752.084169	996.687582	-443.856548	766.178768	966.232971	-176.188315	583.481233	1006.185051	-346.583934	580.370163	1000.168809	-245.588136	678.451222	769.7774460000001	-128.674942	746.009244	668.183311	-149.43866	679.026248	553.891093	-179.252224	723.554447	803.10159	-481.431621	836.423838	701.05708	-455.928806	828.74923	578.52263	-429.845935	608.271295	375.152193	-230.470264	545.472052	396.942536	-165.392828	439.405454	364.745789	-222.789888	865.260015	358.319849	-337.906119	804.212681	281.990423	-400.890344	810.365752	208.91685	-329.209295	321.557029	460.968058	-236.790933	258.225223	242.199384	-224.010039	247.502392	304.284759	-148.351655	658.0235259999999	98.63085	-323.988888	887.310123	69.339552	-298.430241	836.6603270000001	53.524327	-393.102465	746.515301	1436.550409	-490.719083	763.533239	1473.952232	-157.818513	806.538155	1391.76064	-291.668571	691.779672	1480.202407	-318.950122	711.825732	1406.816496	-67.71982199999999	635.260262	1341.856215	-80.116443	667.844827	1293.751851	-25.626183	622.9366240000001	1201.354016	17.086531	593.550496	1182.0791	-56.538751	684.979891	1361.428028	-571.527432	615.86451	1298.900976	-541.2197640000001	601.9132070000001	1244.930188	-600.849868	575.993058	1168.762183	-630.571531	556.131636	1156.584849	-556.015599	719.4714729999999	1150.710268	17.122054	852.189787	1084.072762	-34.535737	813.787511	1028.249345	-9.945667	673.624273	1113.944559	-629.005281	806.39681	1043.798994	-558.419309	771.9452209999999	990.552371	-591.793596	
165	2.18	750.332048	993.040253	-444.669703	762.346491	961.922568	-174.585753	579.83352	1004.657554	-345.580329	576.548936	997.8952	-244.614525	680.699371	766.015432	-129.82563	755.714126	666.888995	-148.074854	696.236772	550.99001	-179.161611	717.593039	800.87173	-481.532669	827.1015599999999	695.927489	-456.203906	813.426252	572.265305	-429.356346	636.005069	373.324202	-231.092107	572.848585	393.866925	-165.168398	467.474219	360.814774	-223.023436	840.323004	349.23014	-338.322296	774.259247	277.075643	-400.294132	777.161145	204.344116	-329.110398	344.123944	455.930057	-236.497763	293.13844	233.82603	-224.472615	281.648017	294.395269	-147.5959	618.782421	99.764279	-324.243279	847.795743	68.31012699999999	-299.172159	797.038769	54.163013	-393.196979	746.795606	1432.401485	-492.029287	759.871571	1471.620819	-158.297867	804.977157	1388.503727	-291.150356	690.819713	1477.442798	-320.251666	706.404032	1404.596299	-69.25151099999999	629.850281	1339.635677	-84.573694	660.173991	1292.281154	-28.213782	613.340204	1199.695052	12.893356	585.219805	1180.812158	-61.076742	689.573072	1352.658932	-571.579794	622.583088	1286.545376	-546.312097	614.774459	1231.620895	-604.839668	593.402483	1153.567933	-633.998826	570.61559	1141.549653	-560.013482	707.474569	1144.192697	15.940256	838.459174	1070.05402	-30.673311	795.633405	1017.039445	-7.004972	692.726217	1103.228304	-628.023923	824.473362	1036.638038	-554.9979499999999	792.483287	982.764081	-589.709415	
166	2.19	749.934749	990.652279	-443.653091	758.8148660000001	960.060906	-172.413868	577.422837	1004.168089	-345.629837	573.969212	996.64418	-244.699643	680.025505	763.956822	-132.659309	765.638735	667.603109	-146.623892	714.616088	550.003477	-178.627775	711.619557	799.589053	-481.952491	815.282871	690.7955040000001	-455.839926	793.268556	565.993791	-428.696612	664.969226	373.13047	-232.203369	601.290434	391.502248	-165.237355	497.150695	356.03992	-223.643019	812.755488	339.695806	-339.163367	741.658548	271.40679	-400.424225	742.567465	200.015845	-329.1299	367.052235	447.781479	-236.179124	330.855125	223.10709	-225.890189	317.883456	281.464841	-147.300266	579.614178	100.958122	-324.74779	808.401356	67.848867	-300.103082	757.614798	54.388247	-394.11259	748.096929	1429.070111	-492.915834	756.3225210000001	1470.323299	-158.955095	803.291534	1386.588072	-290.8655	689.561718	1475.636439	-321.803956	700.785337	1403.704932	-70.774593	624.348324	1338.780267	-88.82750799999999	651.768837	1292.302633	-30.961782	603.634545	1199.612717	8.637180000000001	577.281846	1181.296723	-65.86260799999999	693.6569490000001	1346.437542	-570.445412	630.112554	1275.999345	-548.720225	628.104834	1220.848092	-607.054159	612.156263	1140.876855	-636.423691	586.318052	1128.902632	-563.070039	695.539127	1139.746373	13.641544	823.350171	1057.309811	-28.214388	776.349394	1007.365448	-5.383013	712.565103	1094.70923	-625.9386490000001	843.569034	1031.991913	-550.139871	814.234693	977.652073	-586.4870110000001	
167	2.2	750.117272	989.480049	-441.566337	755.705392	960.346761	-170.356398	576.510819	1004.420521	-346.71663	572.879589	996.151296	-245.813953	678.021755	763.141031	-137.507964	775.898746	670.804989	-145.025095	733.798671	551.123497	-177.706008	705.836204	799.2736169999999	-482.5134	802.066096	685.40553	-455.108135	772.288556	560.776385	-428.551223	694.570127	374.608369	-233.492816	630.483882	390.076339	-165.598433	527.918438	350.559709	-224.547715	783.347726	332.233091	-339.583041	707.356724	266.535289	-401.229229	707.135151	197.11934	-329.164671	390.346943	436.242501	-236.001013	371.23518	210.327504	-227.789678	355.563398	265.927968	-147.507182	540.4300500000001	102.386363	-325.280541	769.166184	67.999537	-301.064979	718.123594	54.421523	-395.185879	750.370361	1426.920799	-493.363127	752.968162	1470.343152	-159.418033	801.691183	1386.07202	-290.460179	688.478058	1475.000648	-323.452377	695.072522	1404.215951	-72.163106	618.5078600000001	1339.343842	-92.63158	642.7641620000001	1293.762228	-34.008616	593.632976	1201.16007	4.350736	569.787462	1183.593836	-70.904296	697.806606	1342.163638	-569.142121	637.729526	1267.354409	-548.263437	640.833111	1212.59504	-607.521865	630.93425	1131.187529	-637.648132	602.272423	1118.785641	-564.935604	683.264015	1137.264057	10.675979	806.8808309999999	1046.340387	-27.313469	755.986657	999.654961	-5.482527	732.065292	1088.72883	-623.13672	862.909039	1030.837905	-543.839392	836.589366	975.927902	-581.885174	
